<?xml version="1.0" encoding="UTF-8" standalone="no"?>
<svg
   class="svg-icon"
   style="overflow:hidden;fill:currentColor"
   viewBox="0 0 832.56201 974.80603"
   version="1.1"
   id="svg1"
   sodipodi:docname="light-bulb.svg"
   width="832.56201"
   height="974.80603"
   inkscape:version="1.3.2 (091e20e, 2023-11-25)"
   xmlns:inkscape="http://www.inkscape.org/namespaces/inkscape"
   xmlns:sodipodi="http://sodipodi.sourceforge.net/DTD/sodipodi-0.dtd"
   xmlns="http://www.w3.org/2000/svg"
   xmlns:svg="http://www.w3.org/2000/svg">
  <defs
     id="defs1" />
  <sodipodi:namedview
     id="namedview1"
     pagecolor="#ffffff"
     bordercolor="#000000"
     borderopacity="0.25"
     inkscape:showpageshadow="2"
     inkscape:pageopacity="0.0"
     inkscape:pagecheckerboard="0"
     inkscape:deskcolor="#d1d1d1"
     inkscape:zoom="0.23046875"
     inkscape:cx="420.88136"
     inkscape:cy="490.30508"
     inkscape:window-width="1312"
     inkscape:window-height="449"
     inkscape:window-x="0"
     inkscape:window-y="38"
     inkscape:window-maximized="0"
     inkscape:current-layer="svg1" />
  <path
     d="m 191.951,231.211 c 11.553,-14.585 24.288,-28.14 38.208,-40.267 l -68.978,-69.013 c -10.828,-10.867 -28.404,-10.867 -39.275,0 -10.831,10.831 -10.831,28.404 0,39.235 l 70.046,70.043 z M 416.29,120.256 c 0.268,0 0.494,0 0.802,0 9.109,0 18.109,0.571 26.955,1.487 V 27.757 C 444.047,12.43 431.615,0 416.287,0 400.959,0 388.566,12.429 388.566,27.757 v 93.968 c 8.846,-0.895 17.842,-1.469 26.956,-1.469 0.27,0 0.534,0 0.762,0 z m 224.401,110.919 69.971,-70.007 c 10.866,-10.831 10.866,-28.404 0,-39.235 -10.794,-10.867 -28.405,-10.867 -39.277,0 l -69.018,69.013 c 13.958,12.123 26.695,25.664 38.324,40.227 z m -516.92,196.837 c 0,-13.403 1.07,-26.519 2.633,-39.483 H 27.722 C 12.433,388.529 0,400.961 0,416.286 c 0,15.328 12.434,27.757 27.722,27.757 h 96.393 c -0.229,-5.28 -0.345,-10.581 -0.345,-16.033 z m 681.069,-39.48 h -98.643 c 1.6,12.964 2.633,26.082 2.633,39.483 0,5.45 -0.115,10.753 -0.305,16.033 h 96.315 c 15.332,0 27.722,-12.429 27.722,-27.757 0,-15.328 -12.39,-27.757 -27.722,-27.757 z M 655.294,616.049 c -11.286,16.547 -23.218,30.843 -34.695,43.77 l 50.787,50.829 c 10.868,10.831 28.483,10.831 39.277,0 10.866,-10.867 10.866,-28.404 0,-39.275 l -55.37,-55.324 z m -533.39,55.323 c -10.831,10.867 -10.831,28.404 0,39.275 10.868,10.831 28.448,10.831 39.275,0 l 50.83,-50.863 C 200.534,646.895 188.597,632.562 177.31,616.053 l -55.403,55.324 z m 548.412,-243.36 c 0.037,-57.556 -19.138,-110.785 -51.438,-153.414 -28.33,-37.442 -66.806,-66.802 -111.379,-84.036 l 0.229,-1.222 -19.026,-5.586 c -14.798,-4.29 -30.051,-7.265 -45.605,-8.867 l -2.211,-0.246 h -0.075 l -0.079,-0.019 c -7.623,-0.724 -15.557,-1.279 -23.83,-1.279 h -1.218 c -8.276,0 -16.207,0.557 -23.833,1.279 l -0.115,0.019 -2.286,0.246 c -15.535,1.6 -30.791,4.575 -45.549,8.867 l -18.416,5.374 0.19,1.222 c -44.802,17.214 -83.505,46.651 -111.99,84.244 -32.258,42.628 -51.438,95.854 -51.438,153.414 0,41.274 7.132,75.207 18.227,103.29 16.661,42.114 42.094,70.559 62.533,92.138 10.22,10.754 19.22,19.941 25.317,27.795 6.254,7.892 9.265,13.995 10.141,18.837 4.459,23.565 4.917,53.306 4.917,60.854 v 2.174 c 0,34.085 27.609,61.617 61.659,61.655 h 142.51 c 34.092,-0.037 61.659,-27.609 61.659,-61.655 v -2.097 c -0.037,-7.474 0.458,-37.291 4.919,-60.893 0.608,-3.278 2.058,-7.017 4.917,-11.591 4.88,-7.97 14.11,-17.883 25.548,-29.819 17.083,-17.959 38.815,-40.604 56.091,-72.805 17.312,-32.161 29.703,-73.706 29.626,-127.882 z m -58.226,87.451 c -13.614,34.336 -34.053,57.575 -53.763,78.391 -9.841,10.411 -19.487,20.095 -27.911,30.812 -8.311,10.562 -15.745,22.65 -18.606,37.481 -5.377,28.94 -5.607,59.978 -5.638,68.862 0,1.181 0,1.828 0,2.096 -0.037,10.295 -8.314,18.606 -18.608,18.606 h -142.51 c -5.223,0 -9.761,-2.059 -13.194,-5.45 -3.391,-3.434 -5.412,-7.934 -5.412,-13.154 0,-0.268 0,-0.953 0,-2.172 -0.037,-8.957 -0.306,-39.921 -5.682,-68.783 -1.828,-9.797 -5.834,-18.571 -10.674,-26.348 -8.579,-13.612 -19.559,-24.819 -30.889,-36.832 -17.116,-17.842 -35.232,-37.119 -49.341,-63.41 -14.07,-26.309 -24.517,-59.745 -24.557,-107.54 0.037,-47.947 15.862,-91.95 42.706,-127.427 26.845,-35.442 64.595,-62.209 108.175,-75.246 l 5.377,-1.638 c 10.524,-2.708 21.315,-4.861 32.429,-6.026 h 0.075 l 2.06,-0.229 c 6.519,-0.627 12.847,-1.03 19.103,-1.066 l 1.105,0.115 1.106,-0.076 c 6.212,0 12.579,0.42 19.063,1.03 h -0.079 l 2.137,0.229 h 0.037 c 11.093,1.163 21.887,3.277 32.372,6.026 l 5.451,1.638 c 43.582,13.037 81.329,39.807 108.175,75.246 26.801,35.478 42.666,79.482 42.666,127.427 0.003,36.409 -6.094,64.511 -15.169,87.446 z M 443.059,174.894 h 0.079 z m -53.612,0 v 0 c 0,0 0.037,0 0.075,0 z m 97.536,636.718 H 345.614 c -14.604,0 -26.499,11.822 -26.499,26.539 0,14.564 11.899,26.465 26.499,26.465 h 141.369 c 14.604,0 26.499,-11.899 26.499,-26.465 0,-14.721 -11.899,-26.539 -26.499,-26.539 z m 0,66.879 H 345.614 c -14.604,0 -26.499,11.857 -26.499,26.464 0,14.678 11.899,26.539 26.499,26.539 h 141.369 c 14.604,0 26.499,-11.857 26.499,-26.539 0,-14.605 -11.899,-26.464 -26.499,-26.464 z m -58.3,67.412 h -72.805 c 0,0.801 -0.154,1.561 -0.154,2.404 0,14.643 22.498,26.499 43.297,26.499 h 34.546 c 20.818,0 43.277,-11.857 43.277,-26.499 0,-0.837 -0.115,-1.6 -0.115,-2.404 h -48.044 z"
     id="path1"
     style="fill:#0038c0;fill-opacity:1" />
</svg>
