<?xml version="1.0" encoding="UTF-8" standalone="no"?>
<!-- Created with Inkscape (http://www.inkscape.org/) -->
<svg xmlns:rdf="http://www.w3.org/1999/02/22-rdf-syntax-ns#" xmlns="http://www.w3.org/2000/svg" xmlns:cc="http://web.resource.org/cc/" xmlns:dc="http://purl.org/dc/elements/1.1/" xmlns:svg="http://www.w3.org/2000/svg" xmlns:inkscape="http://www.inkscape.org/namespaces/inkscape" xmlns:sodipodi="http://sodipodi.sourceforge.net/DTD/sodipodi-0.dtd" xmlns:ns1="http://sozi.baierouge.fr" xmlns:xlink="http://www.w3.org/1999/xlink" id="svg2" viewBox="0 0 238.28 219.98" version="1.0" inkscape:version="0.91 r13725">
  <g id="layer1" transform="translate(-3.8001 1.2983)">
    <path id="path2907" style="fill:#ffffff" d="m113.78 1.6875c-1.16-0.1501-2.32-0.1266-3.53 0.0937a3.6022 3.6022 0 0 1 -0.0625 0.03125c-3.3649 0.56818-6.2902 2.5777-8.0312 5.5-0.008 0.012624-0.0238 0.018592-0.0312 0.03125l-46.849 81.156-46.844 81.19a3.6022 3.6022 0 0 1 -0.062 0.06c-2.1979 3.6164-2.2519 8.1139-0.15625 11.781 2.0973 3.6702 5.9904 5.9012 10.219 5.8438a3.6022 3.6022 0 0 1 0.0625 0h93.719 93.75a3.6022 3.6022 0 0 1 0.0625 0c4.2284 0.0575 8.1213-2.1734 10.219-5.8438 2.0956-3.6674 2.0416-8.1649-0.15625-11.781a3.6022 3.6022 0 0 1 -0.0625 -0.0625l-46.87-81.2-46.85-81.188h0.0312c-1.85-3.1512-5.0635-5.174-8.5625-5.625z" transform="translate(10.706 14.208)"/>
    <path id="path2909" style="fill:#ffffff" d="m112.59 10.906c-0.23018-0.02967-0.4135-0.01873-0.6875 0.03125a12.883 12.883 0 0 1 -0.15625 0c-0.7033 0.11876-1.2792 0.53958-1.625 1.125l-46.808 81.063-46.843 81.185a12.883 12.883 0 0 1 -0.15625 0.25c-0.45976 0.75649-0.45628 1.5999-0.03125 2.3438 0.43096 0.75417 1.1573 1.1994 2.0312 1.1875a12.883 12.883 0 0 1 0.1875 0h93.719 93.75a12.883 12.883 0 0 1 0.1875 0c0.8741 0.0119 1.6-0.43294 2.0312-1.1875 0.42513-0.74401 0.42841-1.5874-0.0312-2.3438a12.883 12.883 0 0 1 -0.16 -0.25l-46.88-81.185-46.78-81.094c-0.37015-0.63049-1.039-1.0334-1.75-1.125z" transform="translate(10.706 14.2)"/>
    <path id="path2320" style="stroke:#d40000;stroke-width:14.9;fill:none" d="m113.25 6c-0.72844-0.093891-1.4467-0.078317-2.2188 0.0625a7.9335 7.9335 0 0 1 -0.125 0c-2.1077 0.35589-3.9075 1.5958-5 3.4062l-0.0312 0.0625-46.844 81.125-46.844 81.188a7.9335 7.9335 0 0 1 -0.087 0.15c-1.3868 2.2818-1.441 5.072-0.125 7.375 1.3197 2.3094 3.7746 3.6925 6.4375 3.6562a7.9335 7.9335 0 0 1 0.09375 0h93.719 93.75a7.9335 7.9335 0 0 1 0.0937 0c2.6631 0.0362 5.1176-1.3466 6.4375-3.6562 1.316-2.3032 1.2617-5.0933-0.125-7.375a7.9335 7.9335 0 0 1 -0.0937 -0.15625l-46.875-81.188-46.812-81.125-0.0312-0.0625c-1.16-1.942-3.13-3.1896-5.31-3.47z" transform="translate(10.706 14.205)"/>
    <g id="flowRoot2899" style="fill:#000000" transform="matrix(2.3343 0 0 2.3343 -472.33 -42.823)">
      <path id="path2763" d="m258.76 53.972c0.144-2.016 0.216-3.384 0.216-4.176 0-3.384-1.368-5.184-3.96-5.184s-3.96 1.728-3.96 5.184c0 1.224 0.072 2.592 0.216 4.176l2.016 27.504h3.456l2.016-27.504m-3.744 32.256c-2.232 0-4.104 1.8-4.104 4.104s1.872 4.104 4.104 4.104c2.304 0 4.104-1.872 4.104-4.104 0-2.304-1.8-4.104-4.104-4.104"/>
    </g>
  </g>
  <metadata>
    <rdf:RDF>
      <cc:Work>
        <dc:format>image/svg+xml</dc:format>
        <dc:type rdf:resource="http://purl.org/dc/dcmitype/StillImage"/>
        <cc:license rdf:resource="http://creativecommons.org/licenses/publicdomain/"/>
        <dc:publisher>
          <cc:Agent rdf:about="http://openclipart.org/">
            <dc:title>Openclipart</dc:title>
          </cc:Agent>
        </dc:publisher>
        <dc:title>Warning</dc:title>
        <dc:date>2009-03-10T20:00:00</dc:date>
        <dc:description>A warning symbol</dc:description>
        <dc:source>https://openclipart.org/detail/22101/warning-by-steren</dc:source>
        <dc:creator>
          <cc:Agent>
            <dc:title>Steren</dc:title>
          </cc:Agent>
        </dc:creator>
        <dc:subject>
          <rdf:Bag>
            <rdf:li>road</rdf:li>
            <rdf:li>roadsign</rdf:li>
            <rdf:li>sign</rdf:li>
            <rdf:li>symbol</rdf:li>
            <rdf:li>warning</rdf:li>
          </rdf:Bag>
        </dc:subject>
      </cc:Work>
      <cc:License rdf:about="http://creativecommons.org/licenses/publicdomain/">
        <cc:permits rdf:resource="http://creativecommons.org/ns#Reproduction"/>
        <cc:permits rdf:resource="http://creativecommons.org/ns#Distribution"/>
        <cc:permits rdf:resource="http://creativecommons.org/ns#DerivativeWorks"/>
      </cc:License>
    </rdf:RDF>
  </metadata>
</svg>
